<?xml version="1.0" encoding="UTF-8" standalone="no"?>
<svg
   xmlns:dc="http://purl.org/dc/elements/1.1/"
   xmlns:cc="http://creativecommons.org/ns#"
   xmlns:rdf="http://www.w3.org/1999/02/22-rdf-syntax-ns#"
   xmlns:svg="http://www.w3.org/2000/svg"
   xmlns="http://www.w3.org/2000/svg"
   xmlns:sodipodi="http://sodipodi.sourceforge.net/DTD/sodipodi-0.dtd"
   xmlns:inkscape="http://www.inkscape.org/namespaces/inkscape"
   viewBox="0 0 1080 508"
   height="508"
   width="1080"
   xml:space="preserve"
   id="svg2"
   version="1.1"
   inkscape:version="0.91 r13725"
   sodipodi:docname="picuslogo.svg"><sodipodi:namedview
     pagecolor="#ffffff"
     bordercolor="#666666"
     borderopacity="1"
     objecttolerance="10"
     gridtolerance="10"
     guidetolerance="10"
     inkscape:pageopacity="0"
     inkscape:pageshadow="2"
     inkscape:window-width="1440"
     inkscape:window-height="852"
     id="namedview24"
     showgrid="false"
     inkscape:zoom="0.27249457"
     inkscape:cx="466.06431"
     inkscape:cy="404.41265"
     inkscape:window-x="0"
     inkscape:window-y="0"
     inkscape:window-maximized="1"
     inkscape:current-layer="svg2" /><metadata
     id="metadata8"><rdf:RDF><cc:Work
         rdf:about=""><dc:format>image/svg+xml</dc:format><dc:type
           rdf:resource="http://purl.org/dc/dcmitype/StillImage" /><dc:title></dc:title></cc:Work></rdf:RDF></metadata><defs
     id="defs6"><clipPath
       id="clipPath18"
       clipPathUnits="userSpaceOnUse"><path
         id="path16"
         d="m 0,606.619 853.228,0 L 853.228,0 0,0 Z"
         inkscape:connector-curvature="0" /></clipPath></defs><g
     transform="matrix(4.0396872,0,0,-3.8688511,-1070.5572,1474.7564)"
     id="g10"
     style="fill:#0eda0c;fill-opacity:0.89510486"><g
       id="g12"
       style="fill:#0eda0c;fill-opacity:0.89510486"><g
         clip-path="url(#clipPath18)"
         id="g14"
         style="fill:#0eda0c;fill-opacity:0.89510486"><g
           transform="translate(489.6187,354.1968)"
           id="g20"
           style="fill:#0eda0c;fill-opacity:0.89510486"><path
             id="path22"
             style="fill:#0eda0c;fill-opacity:0.89510486;fill-rule:nonzero;stroke:none"
             d="M 0,0 C 0.619,-6.941 -12.488,-8.065 -10.455,1.784 -6.953,6.635 -0.426,4.771 0,0"
             inkscape:connector-curvature="0" /></g><g
           transform="translate(475.3921,339.4575)"
           id="g24"
           style="fill:#0eda0c;fill-opacity:0.89510486"><path
             id="path26"
             style="fill:#0eda0c;fill-opacity:0.89510486;fill-rule:nonzero;stroke:none"
             d="m 0,0 c 9.76,-3.155 19.777,2.789 20.65,10.918 1.012,9.422 -6.324,17.474 -17.173,13.766 -3.832,-1.308 -8.803,-6.107 -14.682,-9.137 -9.443,-4.872 -22,-10.059 -35.492,-9.341 17.83,7.532 26.877,21.015 42.228,30.227 1.826,0.349 3.651,0.7 5.487,1.053 11.451,-0.308 19.498,-5.645 23.484,-16.982 10.129,-10.335 23.111,-20.644 31.277,-31.28 -4.156,1.979 -10.496,3.592 -17.597,6.098 -8.34,2.942 -20.621,10.401 -22.411,-1.775 18.045,-25.158 5.754,-52.419 -11.236,-67.612 -5.707,-4.68 -13.629,-9.678 -24.514,-13.984 -0.964,-0.129 -1.912,-0.264 -2.857,-0.385 C 10.877,-77.752 33.98,-26.136 0,0"
             inkscape:connector-curvature="0" /></g><g
           transform="translate(293.4614,310.0552)"
           id="g28"
           style="fill:#0eda0c;fill-opacity:0.89510486"><path
             id="path30"
             style="fill:#0eda0c;fill-opacity:0.89510486;fill-rule:nonzero;stroke:none"
             d="m 0,0 c 3.493,0 6.478,1.191 8.958,3.578 2.481,2.383 3.72,5.254 3.72,8.611 0,3.358 -1.239,6.21 -3.72,8.562 -2.48,2.35 -5.465,3.526 -8.958,3.526 -3.493,0 -6.456,-1.176 -8.904,-3.526 -2.446,-2.352 -3.665,-5.204 -3.665,-8.562 l 0,-39.385 c 0,-2.012 -0.664,-3.66 -1.99,-4.937 -1.328,-1.274 -3.039,-1.912 -5.133,-1.912 -2.098,0 -3.793,0.638 -5.083,1.912 -1.293,1.277 -1.934,2.925 -1.934,4.937 l 0,39.385 c 0,7.251 2.566,13.346 7.7,18.282 5.131,4.937 11.465,7.404 19.009,7.404 7.544,0 13.897,-2.467 19.069,-7.404 5.166,-4.936 7.752,-11.031 7.752,-18.282 0,-7.251 -2.586,-13.363 -7.752,-18.33 C 13.897,-11.114 7.544,-13.598 0,-13.598 c -2.094,0 -3.787,0.639 -5.08,1.916 -1.296,1.273 -1.937,2.92 -1.937,4.934 0,2.016 0.641,3.641 1.937,4.887 C -3.787,-0.619 -2.094,0 0,0"
             inkscape:connector-curvature="0" /></g><g
           transform="translate(340.0767,323.1812)"
           id="g32"
           style="fill:#0eda0c;fill-opacity:0.89510486"><path
             id="path34"
             style="fill:#0eda0c;fill-opacity:0.89510486;fill-rule:nonzero;stroke:none"
             d="m 0,0 c 0,4.497 -2.373,6.749 -7.123,6.749 -2.094,0 -3.786,-0.622 -5.079,-1.865 C -13.499,3.641 -14.14,2.015 -14.14,0 l 0,-37.771 c 0,-2.016 0.641,-3.646 1.938,-4.889 1.293,-1.24 2.985,-1.861 5.079,-1.861 2.094,0 3.806,0.621 5.134,1.861 1.325,1.243 1.989,2.873 1.989,4.889 z m -0.993,25.837 c 1.708,-1.649 2.564,-3.611 2.564,-5.893 0,-2.285 -0.856,-4.249 -2.564,-5.893 -1.711,-1.646 -3.757,-2.468 -6.13,-2.468 -2.372,0 -4.418,0.822 -6.127,2.468 -1.71,1.644 -2.566,3.608 -2.566,5.893 0,2.282 0.856,4.244 2.566,5.893 1.709,1.644 3.755,2.467 6.127,2.467 2.373,0 4.419,-0.823 6.13,-2.467"
             inkscape:connector-curvature="0" /></g><g
           transform="translate(372.5488,316.5347)"
           id="g36"
           style="fill:#0eda0c;fill-opacity:0.89510486"><path
             id="path38"
             style="fill:#0eda0c;fill-opacity:0.89510486;fill-rule:nonzero;stroke:none"
             d="m 0,0 c -3.493,0 -6.462,-1.194 -8.904,-3.578 -2.443,-2.384 -3.665,-5.253 -3.665,-8.612 0,-3.358 1.222,-6.21 3.665,-8.563 2.442,-2.35 5.411,-3.526 8.904,-3.526 2.097,0 3.806,-0.638 5.134,-1.912 1.328,-1.277 1.989,-2.922 1.989,-4.934 0,-2.015 -0.661,-3.646 -1.989,-4.888 -1.328,-1.24 -3.037,-1.862 -5.134,-1.862 -7.474,0 -13.789,2.481 -18.961,7.456 -5.169,4.966 -7.752,11.041 -7.752,18.229 0,7.253 2.567,13.362 7.701,18.332 5.13,4.97 11.468,7.455 19.012,7.455 2.097,0 3.806,-0.639 5.134,-1.912 C 6.462,10.407 7.123,8.763 7.123,6.747 7.123,4.731 6.462,3.104 5.134,1.862 3.806,0.618 2.097,0 0,0"
             inkscape:connector-curvature="0" /></g><g
           transform="translate(399.4722,322.981)"
           id="g40"
           style="fill:#0eda0c;fill-opacity:0.89510486"><path
             id="path42"
             style="fill:#0eda0c;fill-opacity:0.89510486;fill-rule:nonzero;stroke:none"
             d="m 0,0 0,-22.567 c 0,-2.279 0.816,-4.213 2.461,-5.791 1.641,-1.578 3.646,-2.367 6.025,-2.367 2.371,0 4.364,0.789 5.969,2.367 1.608,1.578 2.408,3.512 2.408,5.791 l 0,22.767 c 0,2.015 0.666,3.641 1.992,4.884 1.329,1.243 3.04,1.865 5.129,1.865 2.1,0 3.791,-0.622 5.088,-1.865 1.289,-1.243 1.934,-2.869 1.934,-4.884 l 0,-22.767 c 0,-6.109 -2.168,-11.262 -6.494,-15.461 -4.328,-4.195 -9.672,-6.293 -16.026,-6.293 -6.429,0 -11.806,2.08 -16.136,6.244 -4.332,4.162 -6.494,9.334 -6.494,15.51 l 0,22.567 c 0,2.012 0.646,3.656 1.941,4.934 1.291,1.275 2.982,1.915 5.08,1.915 2.095,0 3.803,-0.64 5.135,-1.915 C -0.668,3.656 0,2.012 0,0"
             inkscape:connector-curvature="0" /></g><g
           transform="translate(465.6733,314.4165)"
           id="g44"
           style="fill:#0eda0c;fill-opacity:0.89510486"><path
             id="path46"
             style="fill:#0eda0c;fill-opacity:0.89510486;fill-rule:nonzero;stroke:none"
             d="m 0,0 c -1.188,-1.141 -1.781,-2.551 -1.781,-4.229 l -0.102,-11.686 c -0.07,-5.507 -2.078,-10.173 -6.025,-13.998 -3.946,-3.83 -8.783,-5.746 -14.506,-5.746 -2.098,0 -3.791,0.623 -5.08,1.867 -1.297,1.241 -1.942,2.87 -1.942,4.881 0,2.02 0.645,3.661 1.942,4.938 1.289,1.277 2.982,1.916 5.08,1.916 1.814,0 3.33,0.586 4.557,1.762 1.222,1.173 1.832,2.632 1.832,4.38 l 0,2.016 c 0.068,2.686 0.103,4.063 0.103,4.131 l 0,5.539 c 0,5.573 1.979,10.256 5.92,14.051 3.943,3.793 8.814,5.692 14.613,5.692 2.094,0 3.805,-0.622 5.133,-1.866 1.326,-1.243 1.992,-2.869 1.992,-4.883 C 11.736,6.818 11.105,5.238 9.85,4.03 8.592,2.822 6.934,2.133 4.875,1.965 2.814,1.796 1.188,1.143 0,0"
             inkscape:connector-curvature="0" /></g></g></g></g></svg>